<?xml version="1.0" encoding="UTF-8"?> <svg xmlns="http://www.w3.org/2000/svg" width="101" height="100" viewBox="0 0 101 100" fill="none"> <mask id="mask0" maskUnits="userSpaceOnUse" x="23" y="22" width="55" height="56"> <circle cx="50.4742" cy="49.9999" r="27.0712" fill="white"></circle> </mask> <g mask="url(#mask0)"> <path d="M49.4322 36.6619C50.3966 32.5206 47.8211 28.3816 43.6797 27.4172C39.5382 26.4527 35.3991 29.028 34.4347 33.1693C33.4703 37.3106 36.0458 41.4496 40.1872 42.414C44.3287 43.3785 48.4678 40.8032 49.4322 36.6619Z" fill="white"></path> <path d="M31.4946 75.6074C30.2176 69.6587 29.7258 65.0452 29.7272 61.526C29.7258 58.4956 30.091 56.2824 30.591 54.7104C31.227 52.7543 31.9998 51.7956 32.6758 51.2432V64.4798V70.9621V104.505C32.6758 106.842 34.571 108.736 36.9073 108.736C39.2443 108.736 41.1395 106.842 41.1395 104.505V73.6075H42.7259V104.505C42.7259 106.842 44.6211 108.736 46.9574 108.736C49.2948 108.736 51.1899 106.842 51.1899 104.505V84.1925C49.6678 80.1524 48.8347 76.6687 48.6585 73.6017C48.6355 73.1971 48.6219 72.799 48.6215 72.4088C48.5955 68.3259 49.9523 65.7945 51.1824 64.3361C51.1848 64.333 51.1875 64.3302 51.1896 64.3275V55.869C53.1289 57.9397 55.8636 60.0118 59.4328 61.335H67.5727C67.6897 61.335 67.8126 61.3436 67.9458 61.3624C68.0782 61.3638 68.197 61.3727 68.3113 61.3888C68.6156 61.4387 69.1365 61.5534 69.7731 61.805C70.1866 61.3254 70.4378 60.7025 70.4378 60.0197C70.4378 58.7331 69.5486 57.6566 68.3524 57.3637C67.2304 59.6161 64.9102 61.1704 62.2281 61.1704C58.4539 61.1704 55.3834 58.0999 55.3834 54.3246C55.3834 53.7134 55.4714 53.124 55.6223 52.5599C55.4282 52.3706 55.2393 52.1803 55.0589 51.9897C53.8179 50.6562 52.9505 49.3035 52.4084 48.3062C52.1373 47.8068 51.9463 47.3981 51.8293 47.1277C51.7704 46.9922 51.7297 46.8912 51.7064 46.8313C51.6954 46.8029 51.6886 46.7841 51.6848 46.7742C51.2751 45.6176 50.1679 44.9071 49.0028 44.9509C48.8539 44.9249 48.7013 44.9084 48.5448 44.9084H35.3212C35.2096 44.9084 35.1005 44.9177 34.993 44.931C34.943 44.93 34.8968 44.928 34.842 44.928C34.188 44.9286 33.1834 45.0115 32.0087 45.4212C30.2474 46.0167 28.1342 47.457 26.6577 50.0743C25.1681 52.6883 24.2525 56.3382 24.2505 61.526C24.2512 65.5504 24.8036 70.5236 26.1402 76.756C26.416 78.0409 27.551 78.9202 28.8147 78.9202C29.005 78.9202 29.1983 78.9003 29.3921 78.8586C30.8703 78.5416 31.8119 77.086 31.4946 75.6074Z" fill="white"></path> <path d="M62.2284 60.486C64.5599 60.486 66.5882 59.1902 67.6345 57.28C68.1151 56.4028 68.3892 55.3961 68.3892 54.3252C68.3892 50.9223 65.6309 48.1643 62.2284 48.1643C59.2486 48.1643 56.7633 50.2795 56.1914 53.0906C56.1103 53.4897 56.0675 53.9025 56.0675 54.3252C56.0675 57.7273 58.8259 60.486 62.2284 60.486Z" fill="white"></path> <path d="M67.8979 62.0472C67.7914 62.0307 67.6833 62.0198 67.5724 62.0198H61.6224H56.8836C56.7721 62.0198 56.6632 62.0307 56.5561 62.0475C56.4531 62.0465 56.3487 62.0509 56.2432 62.0663C56.0112 62.1043 54.3327 62.3662 52.5967 63.8718C52.1021 64.2948 51.624 64.8264 51.1903 65.461C50.0902 67.071 49.2869 69.3676 49.3071 72.4084C49.3071 72.7571 49.3188 73.1169 49.3386 73.4858C49.469 75.8869 50.0324 78.7349 51.1903 82.1596C51.4439 82.9102 51.7232 83.6858 52.0361 84.4933C52.3509 85.3068 53.1282 85.8048 53.9521 85.8048C54.1989 85.8048 54.4494 85.76 54.6934 85.6659C54.7116 85.6587 54.729 85.6498 54.7462 85.6419V105.371C54.7462 107.167 56.2022 108.623 57.9977 108.623C59.794 108.623 61.2493 107.167 61.2493 105.371V87.6729H63.2074V105.371C63.2074 107.167 64.6634 108.623 66.459 108.623C68.2545 108.623 69.7106 107.167 69.7106 105.371V85.6426C69.7287 85.6498 69.7455 85.6594 69.764 85.6659C70.0073 85.76 70.2578 85.8048 70.5046 85.8048C71.3274 85.8048 72.1058 85.3068 72.4213 84.4926C74.3781 79.4342 75.1462 75.5213 75.1489 72.4087C75.177 68.168 73.608 65.3685 71.8593 63.8721C70.862 63.0062 69.8851 62.553 69.1893 62.3155C68.6742 62.1399 68.312 62.0821 68.2135 62.0653C68.1063 62.0506 68.0023 62.0461 67.8979 62.0472ZM54.7458 79.3582V79.8182C53.7703 76.6837 53.4123 74.2494 53.414 72.4087C53.4359 69.8016 54.0685 68.4083 54.7458 67.557V79.3582ZM69.7102 67.5587C70.3828 68.4113 71.0232 69.8033 71.0413 72.4091C71.0427 74.2488 70.685 76.6813 69.7102 79.8141V79.3582V67.5587Z" fill="white"></path> </g> </svg> 