<?xml version="1.0" encoding="UTF-8"?> <svg xmlns="http://www.w3.org/2000/svg" width="101" height="100" viewBox="0 0 101 100" fill="none"> <path fill-rule="evenodd" clip-rule="evenodd" d="M54.9306 71.9034C54.1824 72.2908 55.0539 73.9743 55.8021 73.587L62.2523 70.0107L62.8334 71.133L56.2863 74.5223C55.5381 74.9096 56.4096 76.5931 57.1578 76.2058C60.1508 74.6564 63.1437 73.1071 65.8527 71.4675C68.6586 70.015 67.9675 67.7637 66.8055 65.519L46.8641 27.4559C44.8306 23.5277 43.3341 24.3024 41.4636 25.2708C38.6577 26.7233 35.8518 28.1758 33.046 29.6283C32.1107 30.1125 32.9822 31.796 33.9175 31.3118L40.2774 28.0195L40.7616 28.9548L34.4016 32.2471C33.4663 32.7313 34.3379 34.4148 35.2732 33.9307L41.5363 30.4512L42.1173 31.5736L35.7573 34.8659C34.822 35.3501 35.6936 37.0336 36.6288 36.5495L42.9888 33.2571L43.473 34.1924L37.113 37.4848C36.1777 37.9689 37.0492 39.6525 37.9845 39.1683L44.3445 35.8759L44.8287 36.8112L38.5655 40.2906C37.6302 40.7748 38.4049 42.2713 39.3402 41.7871L45.7002 38.4947L46.3714 39.3332L39.9212 42.9094C38.9859 43.3936 39.7606 44.8901 40.6959 44.4059L47.2429 41.0167L47.8239 42.139L41.2769 45.5283C40.3416 46.0124 41.1163 47.5089 42.0516 47.0247L48.5986 43.6355L49.1796 44.7579L42.6326 48.1471C41.6973 48.6312 42.472 50.1277 43.4073 49.6435L49.9543 46.2543L50.5353 47.3767L43.9883 50.7659C43.053 51.2501 43.9245 52.9336 44.763 52.2623L51.31 48.8731L51.891 49.9955L45.344 53.3847C44.4087 53.8689 45.2802 55.5524 46.2155 55.0682L52.6657 51.4919L53.2467 52.6143L46.6997 56.0035C45.7644 56.4877 46.6359 58.1712 47.5712 57.687L54.1182 54.2978L54.6024 55.2331L48.0554 58.6223C47.1201 59.1065 47.9916 60.79 48.9269 60.3058L55.4739 56.9166L55.9581 57.8519L49.5079 61.4282C48.5726 61.9124 49.3473 63.4088 50.2826 62.9247L56.8296 59.5354L57.3138 60.4707L50.8636 64.047C49.9283 64.5312 50.703 66.0276 51.6382 65.5435L58.1853 62.1542L58.7663 63.2766L52.2193 66.6658C51.284 67.15 52.0586 68.6465 52.9939 68.1623L59.541 64.7731L60.122 65.8954L53.5749 69.2846C52.8267 69.672 53.6014 71.1684 54.3496 70.7811L60.8967 67.3919L61.4777 68.5142L54.9306 71.9034ZM51.9657 41.8925L57.1948 51.9936C57.5821 52.7418 56.2727 53.4197 55.8853 52.6715L50.6563 42.5703C50.1721 41.635 51.4815 40.9572 51.9657 41.8925ZM59.1315 55.7348L64.3605 65.8359C64.8447 66.7712 63.5353 67.449 63.0511 66.5137L57.822 56.4126C57.4347 55.6644 58.7441 54.9865 59.1315 55.7348ZM44.7999 28.0502L50.029 38.1513C50.5131 39.0866 49.2037 39.7644 48.7196 38.8292L43.4905 28.728C43.1031 27.9798 44.4125 27.3019 44.7999 28.0502Z" fill="white"></path> </svg> 